<svg width="29" height="28" viewBox="0 0 29 28" fill="none" xmlns="http://www.w3.org/2000/svg">
<path d="M4 12.3259C4 11.6558 4 11.3208 4.08637 11.0122C4.16287 10.7389 4.28859 10.4819 4.45736 10.2537C4.64789 9.99606 4.91236 9.79037 5.44129 9.37898L13.354 3.22467C13.7639 2.90587 13.9688 2.74647 14.1951 2.6852C14.3948 2.63114 14.6052 2.63114 14.8049 2.6852C15.0312 2.74647 15.2361 2.90587 15.646 3.22467L23.5587 9.37898C24.0876 9.79037 24.3521 9.99606 24.5426 10.2537C24.7114 10.4819 24.8371 10.7389 24.9136 11.0122C25 11.3208 25 11.6558 25 12.3259V20.7666C25 22.0734 25 22.7268 24.7457 23.226C24.522 23.665 24.165 24.022 23.726 24.2457C23.2269 24.5 22.5735 24.5 21.2667 24.5H7.73333C6.42654 24.5 5.77315 24.5 5.27402 24.2457C4.83498 24.022 4.47802 23.665 4.25432 23.226C4 22.7268 4 22.0734 4 20.7666V12.3259Z" stroke="#E0783E" stroke-width="2" stroke-linecap="round" stroke-linejoin="round"/>
</svg>
